<?xml version="1.0" standalone="no"?>
<!DOCTYPE svg PUBLIC "-//W3C//DTD SVG 20010904//EN"
 "http://www.w3.org/TR/2001/REC-SVG-20010904/DTD/svg10.dtd">
<svg version="1.0" xmlns="http://www.w3.org/2000/svg"
 width="16.000000pt" height="16.000000pt" viewBox="0 0 16.000000 16.000000"
 preserveAspectRatio="xMidYMid meet">
<metadata>
Created by potrace 1.11, written by Peter Selinger 2001-2013
</metadata>
<g transform="translate(0.000000,16.000000) scale(0.005333,-0.005333)"
fill="#000000" stroke="none">
<path d="M0 1500 l0 -560 145 0 145 0 1 368 c0 202 3 360 6 352 3 -8 57 -150
120 -315 63 -165 124 -324 135 -353 l20 -53 65 3 65 3 60 160 c33 88 66 174
73 190 7 17 41 105 75 198 35 92 66 167 69 167 3 0 5 -162 3 -360 l-2 -360
145 0 145 0 0 560 0 560 -202 -2 -203 -3 -21 -60 c-31 -88 -195 -518 -203
-533 -5 -8 -53 107 -123 290 l-115 303 -202 3 -201 2 0 -560z"/>
<path d="M1546 2047 c18 -32 437 -587 441 -584 3 4 6 520 4 585 -1 10 -50 12
-226 12 -170 -1 -224 -4 -219 -13z"/>
<path d="M2242 1500 l0 -560 369 0 369 0 0 125 c0 123 0 125 -22 126 -13 0
-114 0 -225 0 l-203 0 0 434 0 435 -144 0 -144 0 0 -560z"/>
<path d="M1530 1263 l0 -320 231 -1 c175 0 229 3 226 12 -5 11 -430 600 -448
621 -5 5 -9 -131 -9 -312z"/>
</g>
</svg>
